<svg version="1.1" id="Laag_1" xmlns="http://www.w3.org/2000/svg" xmlns:xlink="http://www.w3.org/1999/xlink" x="0px" y="0px" viewBox="0 0 107.6 80.1" style="enable-background:new 0 0 107.6 80.1;" xml:space="preserve" class="tb-main-header__logo__fig">
<path d="M33.4,80.1c4.6,0,9.7-0.8,12.9-4.4c3.8-4.2,4.2-10.2,4.5-15.6c0.1-6.9,0.1-13.8,0-20.7L12.5,80L33.4,80.1z"></path>
<path d="M67.5,17.1c-4.3,2.4-10.9,6.4-10.9,11.4v5.4l20.2,21.4c1-0.5,1.9-1,2.9-1.5l0,0c6.7-3.3,14-5.8,20-10.4
	c4.5-3.4,7.9-8.9,7.9-14.3v-30C98.5,3.1,76.3,12.4,67.5,17.1z"></path>
<path d="M11.7,21.1c-0.5-0.2-1-0.3-1.5-0.3c-0.9,0-1.7,0.4-2.4,1.1c-2.6,2.5-2.4,6.8-0.8,9.8c0.2,0.4,0.5,0.9,1,1.2
	c0.6,0.4,1.5,0.5,2.4,0.2c0.8-0.3,1.5-0.8,2.2-1.7c1.4-1.6,2.2-3.4,2.3-5.1C15,24.2,13.6,21.9,11.7,21.1z"></path>
<path d="M45.4,20.4c-0.2,0.7-0.3,1.3-0.4,1.9c-0.1,0.5-0.5,0.8-0.9,0.8c0,0-0.1,0-0.2,0C43.4,23,43,22.6,43.1,22
	c0.1-0.7,0.4-1.9,0.6-2.8c-1.3-0.8-2.5-1.6-3.6-2.2c-0.5-0.3-1.1-0.6-1.7-0.9c-0.1,2.6-0.6,5.3-0.9,7.5c-0.7,4.1-1.4,8.4-0.6,12.3
	c0.6,2.6,1.8,5.1,3,7.5c0.2,0.3,0.3,0.6,0.5,0.9l0.2,0.4l5.3-5.6l-0.3-0.6c-0.2-0.3-0.3-0.6-0.5-0.9c-0.1-0.2-0.1-0.5,0-0.7
	s0.2-0.4,0.5-0.6s0.5-0.1,0.7-0.1c0.2,0.1,0.4,0.2,0.6,0.5c0.1,0.3,0.3,0.6,0.5,0.9v0l3.6-3.8v-5.4C50.9,25.3,48.3,22.6,45.4,20.4z
	 M42.7,25.7c0-0.5,0.5-0.9,1-0.9c0.3,0,0.5,0.1,0.7,0.3s0.3,0.4,0.2,0.7c0,0.4,0,0.8,0,1.1c0,0.5-0.4,0.9-1,0.9
	c-0.3,0-0.5-0.1-0.7-0.3c-0.2-0.2-0.3-0.4-0.3-0.7C42.7,26.5,42.7,26.1,42.7,25.7z M45.5,34.4c-0.1,0.2-0.3,0.4-0.6,0.5
	c-0.1,0-0.2,0-0.3,0c-0.4,0-0.8-0.3-0.9-0.7c-0.4-1.2-0.6-2.4-0.8-3.6c-0.1-0.5,0.3-1,0.8-1.1c0.2,0,0.5,0,0.7,0.2
	c0.2,0.1,0.3,0.4,0.4,0.6c0.2,1.1,0.4,2.3,0.7,3.3C45.6,33.9,45.6,34.2,45.5,34.4z"></path>
<path d="M38.2,47.2c-0.4-0.8-0.7-1.5-1.1-2.2l0-0.1c-1.3-2.6-2.7-5.3-3.3-8.2c-1-4.5-0.2-9.1,0.5-13.5c0.5-2.7,0.9-5.8,0.9-8.5
	c-2-1-29.5-13-35.2-15.6v20.2c1.9-2.9,5.1-6.3,9.9-6.9c4.6-0.6,9.4,2.2,11.6,6.6c1.9,3.9,1.8,9.1-0.5,13.4c-0.1,0.3-0.3,0.6-0.5,0.9
	c-0.6,1.1-1.2,2.1-1.3,3.2c-0.2,2.1,1.4,4,2.9,5.8c0.6,0.7,1.2,1.5,1.8,2.3c1.5,2.3,2.5,5.3,2.5,8.2l0,0.2c0.5,0.2,1,0.5,1.5,0.7
	l0,0c1,0.5,1.9,1,2.9,1.5L38.2,47.2L38.2,47.2z"></path>
<path d="M22.1,45.9c-0.5-0.7-1.1-1.4-1.6-2.1c-1.8-2.2-3.6-4.4-3.3-7.4c0.1-1.5,0.8-2.8,1.5-4c0.2-0.3,0.3-0.6,0.5-0.9
	c1.9-3.7,2.1-8.1,0.4-11.5c-1.6-3.3-5-5.5-8.5-5.5c-0.3,0-0.6,0-0.9,0.1C5.5,15.1,1.6,20.2,0,23.3v5.8C0,34.5,3.4,40,7.9,43.4
	c4.9,3.7,10.6,6.1,16.2,8.6C24,49.8,23.3,47.6,22.1,45.9z M14.1,32.9c-1,1.2-2.1,1.9-3.2,2.3c-0.5,0.2-1.1,0.3-1.7,0.3
	c-0.9,0-1.8-0.3-2.4-0.8c-0.7-0.5-1.2-1.3-1.5-1.9C3.2,29,3,23.3,6.5,20c1.8-1.7,3.9-2.1,6-1.1c2.7,1.2,4.7,4.4,4.5,7.4
	C17,28.5,15.9,30.9,14.1,32.9z"></path>
<path d="M89.5,74.1c-0.9,2.1-2.2,4.1-3.4,5.9l9,0L89.5,74.1z"></path>
<path d="M61.3,48.3c0.7-0.5,1.5-1,2.4-1.5l-7.1-7.5c-0.1,4.7,0,9.5,0,14.2C57.9,51.3,59.4,49.6,61.3,48.3z"></path>
<path d="M71.3,54.9L71.3,54.9L71.3,54.9z"></path>
<path d="M78.5,62.5L78.5,62.5c-0.9,0.9-1.7,2.1-2.2,3.3c-1,2.5-1.1,5.4-1.2,8.2l0,1.3c-0.1,1.6-0.2,3.2-0.4,4.8l9,0l0.1-0.2
	c1.6-2.4,3.2-4.7,4.1-7.2l0.1-0.2L78.5,62.5z"></path>
<path d="M73.1,75.2l0-1.3c0.1-3,0.2-6,1.3-8.9c0.6-1.5,1.5-3,2.7-4.1l0,0l-5.7-6c-0.2,0.7-0.5,1.3-0.7,2c-0.1,0.4-0.5,0.6-0.9,0.6
	c-0.1,0-0.2,0-0.3,0l0,0c-0.5-0.2-0.7-0.7-0.5-1.2c0.3-0.9,0.6-1.8,1-2.7l0-0.2l-4.7-5c-0.9,0.5-2,1.1-2.8,1.6
	c-2.7,1.9-4.8,5.1-5.9,9.1c0,0.3,0,0.5,0,0.8c0.3,5.4,0.7,11.4,4.5,15.6c1.3,1.5,3,2.5,4.7,3.1c-0.2-0.9-0.4-1.6-0.5-2.4
	c0-0.2,0-0.5,0.2-0.7c0.1-0.2,0.4-0.3,0.6-0.4c0.2,0,0.5,0,0.7,0.2c0.2,0.1,0.3,0.4,0.4,0.6c0.1,1,0.4,2.1,0.7,3.2l0,0.1
	c1.5,0.4,3.1,0.5,4.7,0.6C72.9,78.5,73,76.9,73.1,75.2z M67.1,72.8c0,0.5-0.4,0.9-0.9,0.9c-0.5,0-0.9-0.4-0.9-0.9c0-0.4,0-0.8,0-1.2
	c0-0.5,0.4-0.9,0.9-0.9h0c0.2,0,0.5,0.1,0.6,0.3s0.2,0.4,0.2,0.6C67.1,72.1,67.1,72.4,67.1,72.8z M68.2,64.8
	c-0.3,1.2-0.5,2.3-0.7,3.4C67.4,68.7,67,69,66.6,69c0,0-0.1,0-0.1,0c-0.2,0-0.5-0.2-0.6-0.4c-0.1-0.2-0.2-0.4-0.2-0.7
	c0.2-1.1,0.4-2.3,0.8-3.6c0.1-0.2,0.2-0.4,0.4-0.6c0.2-0.1,0.5-0.1,0.7-0.1c0.2,0.1,0.4,0.2,0.5,0.4C68.2,64.3,68.3,64.6,68.2,64.8z
	 M69.5,60.3c-0.1,0.4-0.2,0.8-0.4,1.1c-0.1,0.4-0.5,0.6-0.9,0.6c-0.1,0-0.2,0-0.3,0c-0.2-0.1-0.4-0.2-0.5-0.4s-0.1-0.5-0.1-0.7
	c0.1-0.4,0.2-0.8,0.4-1.1c0.1-0.2,0.2-0.4,0.5-0.5s0.5-0.1,0.7,0c0.2,0.1,0.4,0.2,0.5,0.5C69.6,59.8,69.6,60.1,69.5,60.3z"></path>
</svg>